<?xml version="1.0" standalone="no"?><!DOCTYPE svg PUBLIC "-//W3C//DTD SVG 1.1//EN" "http://www.w3.org/Graphics/SVG/1.1/DTD/svg11.dtd"><svg t="1529043201583" class="icon" style="" viewBox="0 0 1026 1024" version="1.1" xmlns="http://www.w3.org/2000/svg" p-id="1972" xmlns:xlink="http://www.w3.org/1999/xlink" width="200.390625" height="200"><defs><style type="text/css"></style></defs><path d="M986.747 424.463l-42.141-42.14a122.148 122.148 0 0 1-36.034-86.115v-61.074a122.148 122.148 0 0 0-122.148-122.147H725.35a122.148 122.148 0 0 1-86.114-36.034l-40.92-40.92a122.148 122.148 0 0 0-172.838 0l-42.141 42.142a122.148 122.148 0 0 1-86.115 36.033H236.15A122.148 122.148 0 0 0 114 236.356v61.074a122.148 122.148 0 0 1-36.034 86.114l-42.14 42.14a122.148 122.148 0 0 0 0 172.84l42.14 42.14a122.148 122.148 0 0 1 36.034 86.115v61.074a122.148 122.148 0 0 0 122.148 122.148h61.073a122.148 122.148 0 0 1 86.115 36.033l42.14 42.141a122.148 122.148 0 0 0 172.84 0l42.14-42.14A122.148 122.148 0 0 1 726.573 910h61.074a122.148 122.148 0 0 0 122.147-122.148v-61.074a122.148 122.148 0 0 1 36.034-86.114l42.141-42.141a122.148 122.148 0 0 0-1.221-174.06zM943.384 553.94l-42.14 42.141a183.222 183.222 0 0 0-53.746 129.477v61.074a61.074 61.074 0 0 1-61.074 61.073H725.35a183.222 183.222 0 0 0-129.476 53.745l-42.141 42.141a61.074 61.074 0 0 1-86.114 0L428.53 900.23a183.222 183.222 0 0 0-129.476-53.745H237.98a61.074 61.074 0 0 1-61.074-61.074v-61.074a183.222 183.222 0 0 0-53.745-128.255L81.021 553.94a61.074 61.074 0 0 1 0-86.114l42.141-40.309a183.222 183.222 0 0 0 53.745-129.476v-61.074a61.074 61.074 0 0 1 61.074-61.074h61.074a183.222 183.222 0 0 0 129.476-53.745l42.141-42.141a61.074 61.074 0 0 1 86.114 0l40.31 42.14a183.222 183.222 0 0 0 129.476 53.746h61.074a61.074 61.074 0 0 1 61.074 61.074v61.074a183.222 183.222 0 0 0 52.523 129.476l42.141 42.141a61.074 61.074 0 0 1 0 86.114z" fill="#ffffff" p-id="1973"></path><path d="M511.592 296.819A213.759 213.759 0 1 0 725.35 510.578a213.759 213.759 0 0 0-213.758-213.759z m0 366.443a152.685 152.685 0 1 1 152.684-152.684 152.685 152.685 0 0 1-152.684 152.684z" fill="#ffffff" p-id="1974"></path></svg>