<?xml version="1.0" standalone="no"?><!DOCTYPE svg PUBLIC "-//W3C//DTD SVG 1.1//EN" "http://www.w3.org/Graphics/SVG/1.1/DTD/svg11.dtd"><svg t="1529031453544" class="icon" style="" viewBox="0 0 1024 1024" version="1.1" xmlns="http://www.w3.org/2000/svg" p-id="710" xmlns:xlink="http://www.w3.org/1999/xlink" width="40" height="40"><defs><style type="text/css"></style></defs><path d="M1004.8 646.4l-128 26.88 70.4 106.24 11.52 17.92-14.08 14.08-140.8 138.24-12.8 12.8-16.64-10.24-117.76-71.68c-1.28 0-2.56 1.28-2.56 1.28l-25.6 121.6-3.84 20.48H389.12l-5.12-19.2-30.72-129.28-108.8 71.68-16.64 10.24-14.08-14.08L75.52 805.12l-14.08-14.08 10.24-16.64 71.68-116.48c0-1.28-1.28-2.56-1.28-3.84l-121.6-25.6-20.48-3.84V389.12l19.2-5.12 129.28-30.72c0-1.28 1.28-2.56 1.28-3.84l-65.28-101.12-11.52-17.92 14.08-14.08 138.24-140.8 14.08-14.08 16.64 10.24 111.36 69.12L396.8 17.92l3.84-17.92h235.52l3.84 19.2 25.6 126.72c2.56 1.28 6.4 2.56 8.96 3.84l102.4-66.56 16.64-10.24 14.08 14.08 140.8 138.24 14.08 14.08-11.52 16.64-69.12 111.36c0 1.28 1.28 2.56 1.28 3.84l121.6 29.44 19.2 5.12v236.8l-19.2 3.84z m-29.44-200.96l-115.2-28.16-12.8-2.56-3.84-12.8c-2.56-8.96-6.4-16.64-10.24-25.6l-5.12-12.8 6.4-11.52 65.28-104.96-112.64-110.08-97.28 62.72-11.52 7.68-12.8-6.4c-10.24-5.12-19.2-8.96-29.44-12.8l-12.8-5.12-2.56-12.8L596.48 51.2H439.04l-28.16 117.76-2.56 12.8-12.8 3.84c-6.4 2.56-14.08 5.12-20.48 7.68l-11.52 5.12-10.24-6.4-106.24-66.56-110.08 111.36 62.72 96 7.68 11.52-6.4 12.8c-3.84 7.68-7.68 16.64-11.52 25.6l-5.12 11.52-12.8 2.56-122.88 29.44v156.16l115.2 24.32 14.08 2.56 5.12 12.8c2.56 8.96 6.4 17.92 10.24 25.6l5.12 11.52-6.4 11.52L124.16 780.8l111.36 111.36 103.68-67.84 11.52-7.68 12.8 6.4c7.68 3.84 14.08 6.4 21.76 8.96l11.52 5.12 2.56 12.8 29.44 121.6h157.44l24.32-115.2 2.56-14.08 12.8-5.12c7.68-2.56 16.64-6.4 24.32-8.96l11.52-5.12 10.24 6.4 111.36 67.84 111.36-111.36-66.56-101.12-8.96-8.96 6.4-12.8c3.84-7.68 6.4-14.08 10.24-21.76l5.12-12.8 12.8-2.56 122.88-25.6V445.44z m-248.32 112.64c0 1.28 0 1.28-1.28 2.56-14.08 62.72-56.32 115.2-112.64 142.08-1.28 1.28-3.84 2.56-5.12 3.84-26.88 11.52-55.04 17.92-84.48 17.92-113.92 0-207.36-94.72-207.36-212.48 0-117.76 92.16-212.48 207.36-212.48S730.88 394.24 730.88 512c0 15.36-1.28 30.72-3.84 46.08z m-272.64 99.84c1.28 0 3.84 1.28 5.12 1.28 20.48 8.96 42.24 14.08 64 14.08 87.04 0 158.72-72.96 158.72-162.56 0-89.6-71.68-162.56-158.72-162.56S366.08 422.4 366.08 512c0 11.52 1.28 23.04 3.84 34.56v2.56c10.24 47.36 42.24 87.04 84.48 108.8z" p-id="711" fill="#ffffff"></path></svg>